<svg width="45" height="40" viewBox="0 0 45 40" fill="none" xmlns="http://www.w3.org/2000/svg">
<path d="M10.625 5.00439L10 27.5044L21.875 37.5044V12.5044L10.625 5.00439Z" fill="#FCEA2B"/>
<path d="M34.375 5.00439L35 27.5044L23.125 37.5044V12.5044L34.375 5.00439Z" fill="#5C9E31"/>
<path d="M22.5 12.5044V37.5044M11.0481 5.06061C10.4719 4.68561 10 4.94186 10 5.62936V26.8794C10.0445 27.6589 10.3949 28.3893 10.975 28.9119L21.4869 37.3469C21.7688 37.5568 22.1108 37.6705 22.4623 37.671C22.8138 37.6716 23.1562 37.559 23.4387 37.35L34.0225 28.9087C34.6039 28.3882 34.9554 27.6585 35 26.8794V5.62936C35 4.94186 34.5281 4.68561 33.9519 5.06061L23.5481 11.8231C23.2295 12.0073 22.868 12.1043 22.5 12.1043C22.132 12.1043 21.7705 12.0073 21.4519 11.8231L11.0481 5.06061Z" stroke="black" stroke-width="1.11111" stroke-miterlimit="10" stroke-linecap="round"/>
</svg>
