<svg width="32" height="32" viewBox="0 0 32 32" fill="none" xmlns="http://www.w3.org/2000/svg">
<path d="M30.8496 23.0505C30.8278 23.0296 30.8042 23.0107 30.7791 22.994C30.0346 22.3945 23.6006 17.198 20.2471 14.157C20.3561 13.837 20.3176 13.705 20.3176 13.705L17.1306 10.5175C17.1306 10.5175 17.1746 10.6295 17.0911 10.911C14.0146 7.4245 9.55908 1.9075 9.00708 1.2215C9.01258 1.2295 9.01458 1.2405 9.01858 1.249C8.99758 1.2135 8.97708 1.178 8.94858 1.1505C8.34708 0.548997 6.11358 1.807 3.95958 3.961C1.80608 6.1145 0.54858 8.348 1.15008 8.95C1.18058 8.97736 1.21434 9.00087 1.25058 9.02C1.24108 9.0145 1.22958 9.0125 1.22008 9.007C1.90658 9.5605 7.42558 14.0175 10.9111 17.0935C10.6276 17.1775 10.5166 17.13 10.5166 17.13L13.7036 20.318C13.7036 20.318 13.8326 20.364 14.1591 20.2515C17.2011 23.605 22.3931 30.0345 22.9931 30.78C23.0097 30.8043 23.0289 30.8278 23.0506 30.8505C23.1521 30.952 23.3006 31.001 23.4876 31.001C24.4056 31.001 26.2501 29.83 28.0396 28.041C30.1936 25.8865 31.4511 23.6525 30.8496 23.0505ZM4.69958 3.9315C5.52558 3.106 6.36958 2.612 6.58558 2.828C6.60331 2.84757 6.61699 2.87046 6.62583 2.89535C6.63467 2.92023 6.63849 2.94662 6.63708 2.973C6.39358 2.8915 5.77708 3.2565 5.18408 3.85C4.53408 4.5 4.15758 5.1775 4.34258 5.3615C4.42108 5.441 4.58958 5.417 4.80808 5.314C4.23808 5.758 3.75358 5.973 3.59658 5.8165C3.38058 5.6015 3.87508 4.7575 4.69958 3.9315ZM2.16858 7.9315C1.98808 7.751 2.04408 7.364 2.28358 6.854C2.28439 6.92748 2.31214 6.99812 2.36158 7.0525C2.70008 7.391 4.02458 6.6155 5.32058 5.3215C6.61608 4.026 7.39058 2.701 7.05158 2.3625C6.92358 2.2345 6.65458 2.2655 6.29908 2.424C7.30808 1.707 8.13308 1.3895 8.42208 1.678C8.87358 2.13 7.84008 3.8965 6.11358 5.623C4.38658 7.35 2.61958 8.3835 2.16858 7.9315ZM7.62808 6.7385L7.43008 6.939C7.19608 7.17233 6.96041 7.39716 6.72308 7.6135L13.9661 14.8555C13.6661 15.1435 13.3931 15.393 13.1401 15.613L5.43208 8.693C5.07708 8.964 4.72358 9.213 4.37758 9.4365L12.1481 16.412C12.0261 16.5 11.9186 16.5695 11.8126 16.6385C9.27558 14.3815 5.52008 11.2925 3.32308 9.503C4.49908 8.885 5.78408 7.8205 6.80258 6.8015C7.23408 6.3695 8.70208 4.846 9.50108 3.321C11.2356 5.452 14.3561 9.247 16.6366 11.8105C16.5906 11.8815 16.5516 11.9465 16.4976 12.025L9.61208 4.356C9.36715 4.70615 9.10948 5.04721 8.83958 5.3785L15.7091 13.0305C15.4334 13.3503 15.1488 13.6622 14.8556 13.966L7.62808 6.7385ZM27.3771 27.377C25.6791 29.075 24.2046 29.932 23.6091 30.0485C22.7796 29.0195 18.0081 23.122 15.0211 19.8065C15.6181 19.42 16.4551 18.753 17.6036 17.6045C18.048 17.163 18.475 16.7044 18.8836 16.2295L28.4956 25.58L29.3136 24.619L19.6621 15.232C19.7161 15.154 19.7561 15.088 19.8011 15.017C23.0676 17.9595 28.8386 22.632 30.0501 23.61C29.9406 24.1455 29.1326 25.6215 27.3771 27.377Z" fill="#333333"/>
<path d="M16.2141 20.669C18.9931 23.8485 22.6341 28.332 23.7226 29.679C23.9441 29.598 24.3056 29.429 24.8046 29.102C25.5526 28.6125 26.3641 27.938 27.1511 27.1505L18.5106 18.5095C17.7678 19.2531 17.0019 19.9732 16.2141 20.669Z" fill="#333333"/>
</svg>
