<svg width="40" height="40" viewBox="0 0 40 40" fill="none" xmlns="http://www.w3.org/2000/svg">
<path d="M20.0001 6.66669C21.7682 6.66669 23.4639 7.36907 24.7141 8.61931C25.9644 9.86955 26.6667 11.5652 26.6667 13.3334C26.6667 15.1015 25.9644 16.7972 24.7141 18.0474C23.4639 19.2976 21.7682 20 20.0001 20C18.232 20 16.5363 19.2976 15.286 18.0474C14.0358 16.7972 13.3334 15.1015 13.3334 13.3334C13.3334 11.5652 14.0358 9.86955 15.286 8.61931C16.5363 7.36907 18.232 6.66669 20.0001 6.66669ZM20.0001 23.3334C27.3667 23.3334 33.3334 26.3167 33.3334 30V33.3334H6.66675V30C6.66675 26.3167 12.6334 23.3334 20.0001 23.3334Z" fill="#333333"/>
</svg>
